<svg aria-hidden="true" style="width:0;height:0;position:absolute;overflow:hidden" xmlns="http://www.w3.org/2000/svg"><defs><symbol id="icon-sun" viewBox="0 0 32 32"><path d="M8.031 16.5c0 4.143 3.358 7.5 7.5 7.5s7.5-3.357 7.5-7.5-3.357-7.5-7.5-7.5a7.5 7.5 0 0 0-7.5 7.5zm7.5-12.75-2.109 4.219h4.219l-2.11-4.219zm9.012 3.707-4.475 1.491 2.982 2.983 1.493-4.474zM10.994 8.948 6.52 7.457l1.491 4.475 2.983-2.984zm-4.025 5.411-4.219 2.11 4.219 2.109v-4.219zm17.062 4.282 4.219-2.109-4.219-2.109v4.218zm-8.5 10.609 2.109-4.219h-4.219l2.11 4.219zm4.537-5.198 4.475 1.491-1.492-4.475-2.983 2.984zM6.52 25.543l4.475-1.491-2.983-2.983-1.492 4.474z"/></symbol><symbol id="icon-moon" viewBox="0 0 32 32"><path d="M10.895 7.574c0 7.55 5.179 13.67 11.567 13.67 1.588 0 3.101-.38 4.479-1.063-1.695 4.46-5.996 7.636-11.051 7.636-6.533 0-11.83-5.297-11.83-11.83 0-4.82 2.888-8.959 7.023-10.803a16.16 16.16 0 0 0-.188 2.39z"/></symbol></defs></svg>